<svg width="23" height="23" viewBox="0 0 23 23" fill="none" xmlns="http://www.w3.org/2000/svg">
<rect x="1.43738" y="1.05259" width="20.22" height="20.8948" rx="10.11" stroke="white" stroke-width="2"/>
<path d="M11.5474 2.05259C6.5141 2.05259 2.43738 6.2803 2.43738 11.5C2.43738 16.7197 6.5141 20.9474 11.5474 20.9474C16.5807 20.9474 20.6574 16.7197 20.6574 11.5C20.6574 6.2803 16.5807 2.05259 11.5474 2.05259Z" fill="url(#paint0_radial_151_381)"/>
<path d="M16.1485 10.7205C16.7634 11.1693 16.6495 12.114 15.989 12.4683C16.3307 13.0588 15.8979 13.8382 15.3058 14.0035C15.3969 14.1688 15.4424 14.3106 15.4197 14.4759C15.3286 15.1608 14.5998 15.2789 14.0532 15.2789H11.0696C9.88533 15.2789 9.29318 14.594 9.29318 14.0271V11.1221C9.29318 9.58685 10.9558 8.28784 10.9558 7.20138L10.8191 5.87875C10.8191 5.80789 10.8191 5.59532 10.8874 5.54809C10.9785 5.45361 11.2518 5.28828 11.639 5.28828C11.8895 5.28828 12.0717 5.33552 12.2767 5.45361C12.96 5.80789 13.0511 6.68178 13.0511 7.39033C13.0511 7.72099 12.6411 8.73659 12.5956 9.09086C13.1194 8.90192 14.3492 8.68935 15.3058 8.83106C16.4218 8.99639 16.7406 9.7758 16.1485 10.7205ZM6.78793 9.61047H7.74448C7.92668 9.61047 8.10888 9.68133 8.24553 9.82304C8.38218 9.96475 8.45051 10.1537 8.45051 10.3426V15.09C8.45051 15.2789 8.38218 15.4679 8.24553 15.6096C8.10888 15.7513 7.92668 15.8221 7.74448 15.8221H6.78793C6.60573 15.8221 6.42353 15.7513 6.28688 15.6096C6.15023 15.4679 6.08191 15.2789 6.08191 15.09V10.3426C6.08191 10.1537 6.15023 9.96475 6.28688 9.82304C6.42353 9.68133 6.60573 9.61047 6.78793 9.61047Z" fill="white"/>
<defs>
<radialGradient id="paint0_radial_151_381" cx="0" cy="0" r="1" gradientUnits="userSpaceOnUse" gradientTransform="translate(8.79826 7.92857) rotate(78.1046) scale(13.3148 12.8804)">
<stop stop-color="#373737"/>
<stop offset="1"/>
</radialGradient>
</defs>
</svg>
