<svg width="23" height="23" viewBox="0 0 23 23" fill="none" xmlns="http://www.w3.org/2000/svg">
<rect x="1" y="1.39" width="20.22" height="20.22" rx="10.11" stroke="white" stroke-width="2"/>
<path d="M20.22 11.5C20.22 16.5333 16.1433 20.61 11.11 20.61C6.07672 20.61 2 16.5333 2 11.5C2 6.46672 6.07672 2.39 11.11 2.39C16.1433 2.39 20.22 6.46672 20.22 11.5Z" fill="url(#paint0_radial_151_366)"/>
<path d="M20.22 11.5C20.22 16.5333 16.1433 20.61 11.11 20.61C6.07672 20.61 2 16.5333 2 11.5C2 6.46672 6.07672 2.39 11.11 2.39C16.1433 2.39 20.22 6.46672 20.22 11.5Z" fill="url(#paint1_radial_151_366)"/>
<path d="M8.44525 14.7113C8.26305 16.8066 9.26516 18.2414 11.1099 18.2414C12.9547 18.2414 13.9568 16.8066 13.7746 14.7113C13.5924 12.616 12.522 11.4317 11.1099 11.4317C9.72066 11.4545 8.62745 12.6388 8.44525 14.7113Z" fill="url(#paint2_linear_151_366)"/>
<path d="M16.1 6.05676C15.6445 5.46461 14.9157 5.25963 13.9364 5.76068C13.7314 5.87456 13.4809 5.78346 13.367 5.57848C13.2531 5.37351 13.3442 5.12298 13.5492 5.00911C14.9157 4.32586 16.0772 4.66748 16.7605 5.55571C16.8971 5.73791 16.8743 6.01121 16.6921 6.14786C16.5099 6.26173 16.2366 6.23896 16.1 6.05676Z" fill="#E27421"/>
<path d="M6.14591 6.05675C6.60141 5.4646 7.33021 5.25962 8.30954 5.76067C8.51451 5.87455 8.76504 5.78345 8.87891 5.57848C8.99279 5.3735 8.90169 5.12298 8.69671 5.0091C7.33021 4.32585 6.16868 4.66748 5.48543 5.5557C5.34878 5.7379 5.37155 6.0112 5.55375 6.14785C5.73595 6.26173 6.00926 6.23895 6.14591 6.05675Z" fill="#E27421"/>
<path d="M13.0238 8.90357C13.0238 7.9698 13.7298 7.19545 14.5725 7.19545C15.438 7.19545 16.1212 7.94702 16.1212 8.90357C16.1212 9.83735 15.4152 10.6117 14.5725 10.6117C13.7298 10.6117 13.0238 9.83735 13.0238 8.90357Z" fill="url(#paint3_radial_151_366)"/>
<path d="M13.7062 8.24327C13.7062 7.9472 13.8884 7.69667 14.0933 7.69667C14.2983 7.69667 14.4805 7.9472 14.4805 8.24327C14.4805 8.53935 14.2983 8.78987 14.0933 8.78987C13.8884 8.78987 13.7062 8.53935 13.7062 8.24327Z" fill="#4E506A"/>
<path d="M9.2196 8.90357C9.2196 7.9698 8.51358 7.19545 7.6709 7.19545C6.80545 7.19545 6.12219 7.94702 6.12219 8.90357C6.12219 9.83735 6.82823 10.6117 7.6709 10.6117C8.51358 10.6117 9.2196 9.83735 9.2196 8.90357Z" fill="url(#paint4_radial_151_366)"/>
<path d="M7.39814 8.24327C7.39814 7.9472 7.21593 7.69667 7.01096 7.69667C6.80598 7.69667 6.62378 7.9472 6.62378 8.24327C6.62378 8.53935 6.80598 8.78987 7.01096 8.78987C7.21593 8.78987 7.39814 8.53935 7.39814 8.24327Z" fill="#4E506A"/>
<defs>
<radialGradient id="paint0_radial_151_366" cx="0" cy="0" r="1" gradientUnits="userSpaceOnUse" gradientTransform="translate(10.9821 9.93156) rotate(90.1003) scale(12.3205 12.7325)">
<stop stop-color="#FFED85"/>
<stop offset="0.1898" stop-color="#FFE180"/>
<stop offset="0.5295" stop-color="#FFC273"/>
<stop offset="0.9773" stop-color="#FF915E"/>
<stop offset="1" stop-color="#FF8E5D"/>
</radialGradient>
<radialGradient id="paint1_radial_151_366" cx="0" cy="0" r="1" gradientUnits="userSpaceOnUse" gradientTransform="translate(6.97441 6.90401) scale(15.1716)">
<stop stop-color="#FFEA84" stop-opacity="0"/>
<stop offset="1" stop-color="#F08423" stop-opacity="0.34"/>
</radialGradient>
<linearGradient id="paint2_linear_151_366" x1="11.1099" y1="11.4512" x2="11.1099" y2="18.2416" gradientUnits="userSpaceOnUse">
<stop stop-color="#3F1D04"/>
<stop offset="1" stop-color="#7E2307"/>
</linearGradient>
<radialGradient id="paint3_radial_151_366" cx="0" cy="0" r="1" gradientUnits="userSpaceOnUse" gradientTransform="translate(14.5908 8.90357) scale(1.62859 1.6286)">
<stop stop-color="#2C445F"/>
<stop offset="0.9792" stop-color="#191A33"/>
</radialGradient>
<radialGradient id="paint4_radial_151_366" cx="0" cy="0" r="1" gradientUnits="userSpaceOnUse" gradientTransform="translate(7.647 8.90357) rotate(180) scale(1.6286 1.6286)">
<stop stop-color="#2C445F"/>
<stop offset="0.9792" stop-color="#191A33"/>
</radialGradient>
</defs>
</svg>
