<svg width="21" height="21" viewBox="0 0 21 21" fill="none" xmlns="http://www.w3.org/2000/svg">
<path d="M21 5.50161C21.0008 5.36343 20.9743 5.22645 20.922 5.09854C20.8698 4.97062 20.7928 4.85427 20.6955 4.75616L16.2435 0.304495C16.1454 0.207187 16.029 0.130201 15.9011 0.0779519C15.7732 0.025703 15.6362 -0.000781329 15.498 1.75487e-05C15.3598 -0.000781329 15.2228 0.025703 15.0949 0.0779519C14.967 0.130201 14.8506 0.207187 14.7525 0.304495L11.781 3.27577L0.304517 14.7514C0.207202 14.8495 0.13021 14.9659 0.0779576 15.0938C0.0257049 15.2217 -0.000781386 15.3587 1.755e-05 15.4969V19.9485C1.755e-05 20.227 0.110642 20.494 0.307555 20.6909C0.504468 20.8878 0.771539 20.9985 1.05002 20.9985H5.50201C5.64893 21.0064 5.7959 20.9835 5.93337 20.931C6.07084 20.8786 6.19575 20.7978 6.30001 20.694L17.7135 9.21833L20.6955 6.29955C20.7912 6.19767 20.8692 6.08058 20.9265 5.95307C20.9366 5.86938 20.9366 5.78478 20.9265 5.70109C20.9314 5.65222 20.9314 5.60298 20.9265 5.5541L21 5.50161ZM5.07151 18.8986H2.10001V15.9273L12.5265 5.50161L15.498 8.47289L5.07151 18.8986ZM16.9785 6.9925L14.007 4.02122L15.498 2.54083L18.459 5.50161L16.9785 6.9925Z" fill="white"/>
</svg>
