<svg width="25" height="25" viewBox="0 0 25 25" fill="none" xmlns="http://www.w3.org/2000/svg">
<path d="M22.1602 10.94L21.1802 15.12C20.3402 18.73 18.6802 20.19 15.5602 19.89C15.0602 19.85 14.5202 19.76 13.9402 19.62L12.2602 19.22C8.09018 18.23 6.80018 16.17 7.78018 11.99L8.76018 7.80001C8.96018 6.95001 9.20018 6.21001 9.50018 5.60001C10.6702 3.18001 12.6602 2.53001 16.0002 3.32001L17.6702 3.71001C21.8602 4.69001 23.1402 6.76001 22.1602 10.94Z" stroke="#292D32" stroke-width="1.5" stroke-linecap="round" stroke-linejoin="round"/>
<path d="M15.5599 19.8901C14.9399 20.3101 14.1599 20.6601 13.2099 20.9701L11.6299 21.4901C7.65985 22.7701 5.56985 21.7001 4.27985 17.7301L2.99985 13.7801C1.71985 9.8101 2.77985 7.7101 6.74985 6.4301L8.32985 5.9101C8.73985 5.7801 9.12985 5.6701 9.49985 5.6001C9.19985 6.2101 8.95985 6.9501 8.75985 7.8001L7.77985 11.9901C6.79985 16.1701 8.08985 18.2301 12.2599 19.2201L13.9399 19.6201C14.5199 19.7601 15.0599 19.8501 15.5599 19.8901Z" stroke="#292D32" stroke-width="1.5" stroke-linecap="round" stroke-linejoin="round"/>
</svg>
