<svg width="15" height="15" viewBox="0 0 15 15" fill="none" xmlns="http://www.w3.org/2000/svg">
<path d="M10.6815 1.19901L14.301 4.81851C14.532 5.04962 14.7049 5.33231 14.8052 5.64331C14.9056 5.95431 14.9306 6.2847 14.8783 6.60726C14.8259 6.92983 14.6976 7.23533 14.504 7.4986C14.3104 7.76188 14.057 7.97538 13.7648 8.12151L10.1122 9.94777C9.98055 10.0135 9.87985 10.1282 9.83175 10.2673L8.75175 13.3918C8.69985 13.542 8.61064 13.6765 8.49247 13.7827C8.37431 13.889 8.23108 13.9634 8.07623 13.9991C7.92139 14.0348 7.76002 14.0306 7.60727 13.9868C7.45452 13.943 7.31541 13.8611 7.203 13.7488L4.875 11.4208L1.545 14.75H0.75V13.9535L4.08 10.625L1.75125 8.29701C1.63875 8.18462 1.5567 8.04546 1.5128 7.89262C1.4689 7.73978 1.46459 7.57828 1.5003 7.42332C1.536 7.26836 1.61053 7.12503 1.71689 7.0068C1.82324 6.88858 1.95792 6.79935 2.10825 6.74751L5.23275 5.66826C5.37185 5.62016 5.48655 5.51946 5.55225 5.38776L7.3785 1.73526C7.52461 1.44284 7.73813 1.18933 8.00146 0.995637C8.2648 0.801947 8.5704 0.673624 8.89307 0.621249C9.21575 0.568874 9.54625 0.593948 9.85733 0.694402C10.1684 0.794856 10.4504 0.967814 10.6815 1.19901ZM13.506 5.61351L9.8865 1.99476C9.78151 1.88969 9.65304 1.81106 9.5117 1.76537C9.37036 1.71968 9.22019 1.70823 9.07355 1.73196C8.92692 1.75569 8.78802 1.81393 8.66831 1.90187C8.5486 1.98981 8.45149 2.10494 8.385 2.23776L6.55875 5.89101C6.36133 6.28554 6.01727 6.58707 5.60025 6.73101L2.7585 7.71351L7.78725 12.7415L8.76825 9.90051C8.9122 9.4835 9.21372 9.13943 9.60825 8.94201L13.2623 7.11501C13.3951 7.04859 13.5103 6.95154 13.5983 6.83186C13.6864 6.71218 13.7447 6.5733 13.7685 6.42666C13.7923 6.28002 13.7809 6.12982 13.7353 5.98844C13.6896 5.84707 13.611 5.71856 13.506 5.61351Z" fill="white"/>
</svg>
