<svg width="28" height="29" viewBox="0 0 28 29" fill="none" xmlns="http://www.w3.org/2000/svg">
<path d="M21 21.8575C21 18.3205 16.9167 17.5381 14 17.5381C11.0833 17.5381 7 18.3205 7 21.8575M24.5 14.0381C24.5 19.8371 19.799 24.5381 14 24.5381C8.20101 24.5381 3.5 19.8371 3.5 14.0381C3.5 8.23916 8.20101 3.53815 14 3.53815C19.799 3.53815 24.5 8.23916 24.5 14.0381ZM17.5 10.5381C17.5 12.4711 15.933 14.0381 14 14.0381C12.067 14.0381 10.5 12.4711 10.5 10.5381C10.5 8.60515 12.067 7.03815 14 7.03815C15.933 7.03815 17.5 8.60515 17.5 10.5381Z" stroke="black" stroke-width="1.5" stroke-linecap="round" stroke-linejoin="round"/>
</svg>
