<svg width="19" height="18" viewBox="0 0 19 18" fill="none" xmlns="http://www.w3.org/2000/svg">
<path d="M17 11.25V6.75C17 3 15.5 1.5 11.75 1.5H7.25C3.5 1.5 2 3 2 6.75V11.25C2 15 3.5 16.5 7.25 16.5H11.75C15.5 16.5 17 15 17 11.25Z" stroke="white" stroke-width="1.5" stroke-linecap="round" stroke-linejoin="round"/>
<path d="M2.38989 5.33252H16.6099" stroke="white" stroke-width="1.5" stroke-linecap="round" stroke-linejoin="round"/>
<path d="M6.88989 1.58252V5.22752" stroke="white" stroke-width="1.5" stroke-linecap="round" stroke-linejoin="round"/>
<path d="M12.1101 1.58252V4.89002" stroke="white" stroke-width="1.5" stroke-linecap="round" stroke-linejoin="round"/>
<path d="M7.8125 10.8375V9.93746C7.8125 8.78246 8.63 8.30996 9.6275 8.88746L10.4075 9.33746L11.1875 9.78746C12.185 10.365 12.185 11.31 11.1875 11.8875L10.4075 12.3375L9.6275 12.7875C8.63 13.365 7.8125 12.8925 7.8125 11.7375V10.8375V10.8375Z" stroke="white" stroke-width="1.5" stroke-miterlimit="10" stroke-linecap="round" stroke-linejoin="round"/>
</svg>
