<svg width="25" height="25" viewBox="0 0 25 25" fill="none" xmlns="http://www.w3.org/2000/svg">
<path d="M2.25 12.7039C2.25 10.4155 2.25 9.27128 2.7692 8.32274C3.2884 7.37421 4.23695 6.78551 6.13403 5.60813L8.13403 4.36687C10.1394 3.12229 11.1421 2.5 12.25 2.5C13.3579 2.5 14.3606 3.12229 16.366 4.36687L18.366 5.60812C20.2631 6.78551 21.2116 7.37421 21.7308 8.32274C22.25 9.27128 22.25 10.4155 22.25 12.7039V14.225C22.25 18.1258 22.25 20.0763 21.0784 21.2881C19.9069 22.5 18.0212 22.5 14.25 22.5H10.25C6.47876 22.5 4.59315 22.5 3.42157 21.2881C2.25 20.0763 2.25 18.1258 2.25 14.225V12.7039Z" stroke="#A2A2A2" stroke-width="1.5"/>
<path d="M15.25 18.5H9.25" stroke="#A2A2A2" stroke-width="1.5" stroke-linecap="round"/>
</svg>
