<svg width="25" height="25" viewBox="0 0 25 25" fill="none" xmlns="http://www.w3.org/2000/svg">
<path d="M19.8117 7.5C20.0404 6.19523 19.0363 5 17.7117 5H6.78788C5.46323 5 4.45922 6.19523 4.68784 7.5" stroke="#A2A2A2" stroke-width="1.5"/>
<path d="M17.7499 5C17.7783 4.74092 17.7925 4.61135 17.7927 4.50435C17.795 3.48072 17.0239 2.62064 16.0061 2.51142C15.8997 2.5 15.7694 2.5 15.5088 2.5H8.99099C8.73035 2.5 8.60002 2.5 8.49362 2.51142C7.47584 2.62064 6.70481 3.48072 6.70704 4.50434C6.70727 4.61135 6.72146 4.7409 6.74983 5" stroke="#A2A2A2" stroke-width="1.5"/>
<path d="M14.8312 14.1159C15.3896 14.4621 15.3896 15.3582 14.8312 15.7044L11.4596 17.7945C10.9169 18.1309 10.25 17.6931 10.25 17.0003V12.82C10.25 12.1273 10.9169 11.6894 11.4596 12.0258L14.8312 14.1159Z" stroke="#A2A2A2" stroke-width="1.5"/>
<path d="M2.63351 14.293C2.18748 11.1294 1.96447 9.54765 2.91232 8.52383C3.86017 7.5 5.54758 7.5 8.92239 7.5H15.5776C18.9524 7.5 20.6398 7.5 21.5877 8.52383C22.5355 9.54765 22.3125 11.1294 21.8665 14.293L21.4435 17.293C21.0937 19.7739 20.9189 21.0143 20.0217 21.7572C19.1245 22.5 17.8012 22.5 15.1546 22.5H9.34536C6.69881 22.5 5.37553 22.5 4.47834 21.7572C3.58115 21.0143 3.40626 19.7739 3.05648 17.293L2.63351 14.293Z" stroke="#A2A2A2" stroke-width="1.5"/>
</svg>
