<svg width="28" height="28" viewBox="0 0 28 28" fill="none" xmlns="http://www.w3.org/2000/svg">
<path d="M27.1609 14C27.1609 21.735 21.1196 28 13.6609 28C6.20214 28 0.160889 21.735 0.160889 14C0.160889 6.265 6.20214 0 13.6609 0C21.1196 0 27.1609 6.265 27.1609 14Z" fill="url(#paint0_radial_330_12239)"/>
<path d="M10.0852 21.5249C10.0852 22.2949 11.6715 22.1549 13.6627 22.1549C15.6202 22.1549 17.2402 22.2599 17.2402 21.5249C17.2402 20.6149 15.654 19.9849 13.6627 19.9849C11.6715 20.0199 10.0852 20.6149 10.0852 21.5249Z" fill="url(#paint1_linear_330_12239)"/>
<path d="M5.8623 15.9251C5.8623 14.3501 6.90855 13.0551 8.2248 13.0551C9.54105 13.0551 10.5873 14.3501 10.5873 15.9251C10.5873 16.5901 10.4186 17.1851 10.0811 17.6751C9.94605 17.8851 9.70982 18.0601 9.43982 18.1301C9.13607 18.2001 8.69731 18.2701 8.19106 18.2701C7.68481 18.2701 7.24606 18.2001 6.94231 18.1301C6.67231 18.0601 6.46982 17.9201 6.30107 17.6751C6.03107 17.1501 5.8623 16.5551 5.8623 15.9251Z" fill="url(#paint2_radial_330_12239)"/>
<path d="M16.6965 15.9251C16.6965 14.3501 17.7428 13.0551 19.059 13.0551C20.3753 13.0551 21.4215 14.3501 21.4215 15.9251C21.4215 16.5901 21.219 17.1851 20.9153 17.6751C20.7803 17.8851 20.544 18.0601 20.274 18.1301C19.869 18.2351 19.464 18.2701 19.0253 18.2701C18.519 18.2701 18.0803 18.2001 17.7765 18.1301C17.5065 18.0601 17.304 17.9201 17.1353 17.6751C16.8653 17.1501 16.6965 16.5551 16.6965 15.9251Z" fill="url(#paint3_radial_330_12239)"/>
<path d="M8.52676 15.0502C8.52676 15.0852 8.52676 15.1202 8.52676 15.1902C8.52676 15.5402 8.22301 15.8202 7.85176 15.8202C7.48051 15.8202 7.17676 15.5402 7.17676 15.1902C7.17676 15.0502 7.21052 14.9102 7.31177 14.8052C7.71677 14.8752 8.12176 14.9452 8.52676 15.0502Z" fill="#4F4F67"/>
<path d="M18.5195 15.8202C18.1482 15.8202 17.8782 15.5402 17.8445 15.2252C18.2832 15.1552 18.722 15.0852 19.127 14.9802C19.1607 15.0502 19.1607 15.1202 19.1607 15.1902C19.1945 15.5052 18.8907 15.8202 18.5195 15.8202Z" fill="#4F4F67"/>
<path d="M11.2973 13.2653C12.0398 13.3353 11.9048 14.7003 11.2635 14.7003C8.56351 14.3853 5.99853 13.5803 4.95228 13.0553C4.61478 12.8803 4.51352 12.6353 4.58102 12.3553C4.64852 12.0403 4.95228 11.8303 5.12103 11.9003C7.75353 12.6353 8.69853 12.9853 11.2973 13.2653Z" fill="url(#paint4_linear_330_12239)"/>
<path d="M15.9898 13.2653C15.2473 13.3353 15.3823 14.7003 16.0235 14.7003C18.7235 14.3853 21.2886 13.5803 22.3348 13.0553C22.6723 12.8803 22.7735 12.6353 22.706 12.3553C22.6385 12.0403 22.3348 11.8303 22.166 11.9003C19.5673 12.6353 18.6223 12.9853 15.9898 13.2653Z" fill="url(#paint5_linear_330_12239)"/>
<defs>
<radialGradient id="paint0_radial_330_12239" cx="0" cy="0" r="1" gradientUnits="userSpaceOnUse" gradientTransform="translate(9.62448 9.36232) rotate(76.765) scale(18.3167 17.7324)">
<stop stop-color="#FFB06C"/>
<stop offset="1" stop-color="#FD4545"/>
</radialGradient>
<linearGradient id="paint1_linear_330_12239" x1="13.6627" y1="20.3064" x2="13.6627" y2="22.1863" gradientUnits="userSpaceOnUse">
<stop stop-color="#3F1D04"/>
<stop offset="1" stop-color="#7E2307"/>
</linearGradient>
<radialGradient id="paint2_radial_330_12239" cx="0" cy="0" r="1" gradientUnits="userSpaceOnUse" gradientTransform="translate(8.23321 15.6626) scale(2.44268 2.53315)">
<stop stop-color="#2C445F"/>
<stop offset="0.9792" stop-color="#191A33"/>
</radialGradient>
<radialGradient id="paint3_radial_330_12239" cx="0" cy="0" r="1" gradientUnits="userSpaceOnUse" gradientTransform="translate(19.0832 15.6626) scale(2.44441 2.53494)">
<stop stop-color="#2C445F"/>
<stop offset="0.9792" stop-color="#191A33"/>
</radialGradient>
<linearGradient id="paint4_linear_330_12239" x1="8.18127" y1="15.04" x2="8.18127" y2="10.9573" gradientUnits="userSpaceOnUse">
<stop stop-color="#9A2F00"/>
<stop offset="1" stop-color="#D44800"/>
</linearGradient>
<linearGradient id="paint5_linear_330_12239" x1="19.1058" y1="15.04" x2="19.1058" y2="10.9573" gradientUnits="userSpaceOnUse">
<stop stop-color="#9A2F00"/>
<stop offset="1" stop-color="#D44800"/>
</linearGradient>
</defs>
</svg>
