<svg width="29" height="28" viewBox="0 0 29 28" fill="none" xmlns="http://www.w3.org/2000/svg">
<path d="M28.1287 14C28.1287 21.735 21.8637 28 14.1287 28C6.39366 28 0.128662 21.735 0.128662 14C0.128662 6.265 6.39366 0 14.1287 0C21.8637 0 28.1287 6.3 28.1287 14Z" fill="url(#paint0_radial_330_12238)"/>
<path d="M28.1287 14C28.1287 21.735 21.8637 28 14.1287 28C6.39366 28 0.128662 21.735 0.128662 14C0.128662 6.265 6.39366 0 14.1287 0C21.8637 0 28.1287 6.3 28.1287 14Z" fill="url(#paint1_radial_330_12238)"/>
<path d="M10.2078 21.8401C10.2078 22.0501 10.3478 22.1901 10.5578 22.1901C11.0828 22.1901 11.7828 21.245 14.0928 21.245C16.4028 21.245 17.1378 22.1901 17.6278 22.1901C17.8728 22.1901 17.9778 22.0501 17.9778 21.8401C17.9778 21.2451 16.7528 19.1451 14.0578 19.1451C11.4678 19.1451 10.2078 21.2101 10.2078 21.8401Z" fill="url(#paint2_linear_330_12238)"/>
<path d="M2.61284 25.7249C1.42284 24.5349 1.31785 22.6099 2.40285 21.2799L4.67785 18.5499C4.78285 18.4099 5.02784 18.4099 5.13284 18.5499L7.40784 21.2799C8.49284 22.5749 8.42283 24.4999 7.19783 25.7249C5.97283 27.0199 3.90784 27.0199 2.61284 25.7249Z" fill="url(#paint3_linear_330_12238)"/>
<path d="M4.92435 26.2499C4.15435 26.2499 3.45435 25.9699 2.89435 25.4099C1.84435 24.3599 1.77435 22.7149 2.71935 21.5599L4.92435 18.9349L7.12936 21.5599C8.07436 22.7149 8.00436 24.3599 6.95436 25.4099C6.42937 25.9699 5.69435 26.2499 4.92435 26.2499Z" fill="url(#paint4_radial_330_12238)"/>
<path d="M2.61188 23.9398C2.22688 23.5548 2.22688 22.9598 2.54188 22.5748L3.24188 21.7348C3.27688 21.6998 3.34688 21.6998 3.38188 21.7348L4.08188 22.5748C4.43188 22.9948 4.39688 23.5898 4.01188 23.9398C3.66188 24.3598 2.99688 24.3598 2.61188 23.9398Z" fill="url(#paint5_linear_330_12238)"/>
<path d="M17.9768 15.6799C17.9768 14.2099 18.9568 13.0549 20.1468 13.0549C21.3368 13.0549 22.3168 14.2449 22.3168 15.6799C22.3168 16.2749 22.1418 16.8349 21.8618 17.2899C21.7918 17.3949 21.7218 17.4649 21.6168 17.5349C21.5118 17.6049 21.4068 17.6399 21.3018 17.6749C20.5668 17.8499 19.7618 17.8499 19.0268 17.6749C18.9218 17.6399 18.7818 17.6049 18.7118 17.5349C18.6068 17.4649 18.5368 17.3949 18.4668 17.2899C18.1168 16.7999 17.9768 16.2399 17.9768 15.6799Z" fill="url(#paint6_radial_330_12238)"/>
<path d="M19.832 14.035C20.077 14.315 20.077 14.875 19.867 15.295C19.657 15.715 19.272 15.785 19.027 15.505C18.782 15.225 18.782 14.665 18.992 14.245C19.202 13.825 19.587 13.755 19.832 14.035Z" fill="#4E506A"/>
<path d="M10.3134 15.68C10.3134 14.21 9.33339 13.055 8.14339 13.055C6.95339 13.055 5.97339 14.245 5.97339 15.68C5.97339 16.275 6.14841 16.835 6.42841 17.29C6.49841 17.395 6.56839 17.465 6.67339 17.535C6.77839 17.605 6.8834 17.64 6.9884 17.675C7.7234 17.85 8.5284 17.85 9.2634 17.675C9.3684 17.64 9.50841 17.605 9.57841 17.535C9.68341 17.465 9.75339 17.395 9.82339 17.29C10.1384 16.8 10.3134 16.24 10.3134 15.68Z" fill="url(#paint7_radial_330_12238)"/>
<path d="M7.12808 14.035C6.88308 14.315 6.88307 14.875 7.09307 15.295C7.30307 15.715 7.68808 15.785 7.93308 15.505C8.17808 15.225 8.17807 14.665 7.96807 14.245C7.75807 13.825 7.37308 13.755 7.12808 14.035Z" fill="#4E506A"/>
<path d="M19.2744 9.34508C21.2344 9.76508 22.3544 10.7101 23.6144 11.9701C24.0344 12.3901 23.4744 13.1951 22.9494 12.7051C22.1094 11.9351 20.9894 11.0951 19.0644 10.7101C18.0844 10.5001 18.4694 9.17008 19.2744 9.34508Z" fill="url(#paint8_linear_330_12238)"/>
<path d="M8.98399 9.34508C7.02399 9.76508 5.90398 10.7101 4.64398 11.9701C4.22398 12.3901 4.78399 13.1951 5.30899 12.7051C6.14899 11.9351 7.26898 11.0951 9.19398 10.7101C10.174 10.5001 9.78899 9.17008 8.98399 9.34508Z" fill="url(#paint9_linear_330_12238)"/>
<defs>
<radialGradient id="paint0_radial_330_12238" cx="0" cy="0" r="1" gradientUnits="userSpaceOnUse" gradientTransform="translate(14.1423 6.31711) rotate(90.1003) scale(21.6947 31.1468)">
<stop stop-color="#FFED85"/>
<stop offset="0.1898" stop-color="#FFE180"/>
<stop offset="0.5295" stop-color="#FFC273"/>
<stop offset="0.9773" stop-color="#FF915E"/>
<stop offset="1" stop-color="#FF8E5D"/>
</radialGradient>
<radialGradient id="paint1_radial_330_12238" cx="0" cy="0" r="1" gradientUnits="userSpaceOnUse" gradientTransform="translate(7.76793 6.939) scale(23.3105)">
<stop stop-color="#FFEA84" stop-opacity="0"/>
<stop offset="1" stop-color="#F08423" stop-opacity="0.34"/>
</radialGradient>
<linearGradient id="paint2_linear_330_12238" x1="14.1217" y1="19.1454" x2="14.0885" y2="22.2283" gradientUnits="userSpaceOnUse">
<stop stop-color="#3F1D04"/>
<stop offset="1" stop-color="#7E2307"/>
</linearGradient>
<linearGradient id="paint3_linear_330_12238" x1="4.91143" y1="26.6846" x2="4.91143" y2="18.4427" gradientUnits="userSpaceOnUse">
<stop stop-color="#20BBF2"/>
<stop offset="1" stop-color="#007EDB"/>
</linearGradient>
<radialGradient id="paint4_radial_330_12238" cx="0" cy="0" r="1" gradientUnits="userSpaceOnUse" gradientTransform="translate(4.74695 24.6209) scale(5.3994 5.39939)">
<stop offset="0.0961217" stop-color="#2FD7FC"/>
<stop offset="1" stop-color="#007EDB"/>
</radialGradient>
<linearGradient id="paint5_linear_330_12238" x1="3.31881" y1="24.2548" x2="3.31881" y2="21.6891" gradientUnits="userSpaceOnUse">
<stop stop-color="#A8E3FF" stop-opacity="0.799"/>
<stop offset="1" stop-color="#6AE1FF" stop-opacity="0"/>
</linearGradient>
<radialGradient id="paint6_radial_330_12238" cx="0" cy="0" r="1" gradientUnits="userSpaceOnUse" gradientTransform="translate(20.1108 15.9462) rotate(90) scale(2.67513 2.85849)">
<stop stop-color="#3B426A"/>
<stop offset="0.9792" stop-color="#191A33"/>
</radialGradient>
<radialGradient id="paint7_radial_330_12238" cx="0" cy="0" r="1" gradientUnits="userSpaceOnUse" gradientTransform="translate(8.15324 15.9462) rotate(90) scale(2.67513 2.85851)">
<stop stop-color="#3B426A"/>
<stop offset="0.9792" stop-color="#191A33"/>
</radialGradient>
<linearGradient id="paint8_linear_330_12238" x1="21.1217" y1="8.64711" x2="21.1217" y2="12.61" gradientUnits="userSpaceOnUse">
<stop stop-color="#E78E0D"/>
<stop offset="1" stop-color="#CB6000"/>
</linearGradient>
<linearGradient id="paint9_linear_330_12238" x1="7.13661" y1="8.64711" x2="7.13661" y2="12.61" gradientUnits="userSpaceOnUse">
<stop stop-color="#E78E0D"/>
<stop offset="1" stop-color="#CB6000"/>
</linearGradient>
</defs>
</svg>
