<svg width="29" height="28" viewBox="0 0 29 28" fill="none" xmlns="http://www.w3.org/2000/svg">
<path d="M28.0964 14C28.0964 21.735 21.8314 28 14.0964 28C6.36144 28 0.0964355 21.735 0.0964355 14C0.0964355 6.265 6.36144 0 14.0964 0C21.8314 0 28.0964 6.265 28.0964 14Z" fill="url(#paint0_radial_330_12237)"/>
<path d="M28.0964 14C28.0964 21.735 21.8314 28 14.0964 28C6.36144 28 0.0964355 21.735 0.0964355 14C0.0964355 6.265 6.36144 0 14.0964 0C21.8314 0 28.0964 6.265 28.0964 14Z" fill="url(#paint1_radial_330_12237)"/>
<path d="M10.0013 18.935C9.7213 22.155 11.2613 24.36 14.0963 24.36C16.9313 24.36 18.4713 22.155 18.1913 18.935C17.9113 15.715 16.2663 13.895 14.0963 13.895C11.9613 13.93 10.2813 15.75 10.0013 18.935Z" fill="url(#paint2_linear_330_12237)"/>
<path d="M21.765 5.63497C21.065 4.72497 19.945 4.40997 18.44 5.17997C18.125 5.35497 17.74 5.21497 17.565 4.89997C17.39 4.58497 17.53 4.19997 17.845 4.02497C19.945 2.97497 21.73 3.49997 22.78 4.86497C22.99 5.14497 22.955 5.56497 22.675 5.77497C22.395 5.94997 21.975 5.91497 21.765 5.63497Z" fill="#E27421"/>
<path d="M6.46788 5.63497C7.16788 4.72497 8.28788 4.40997 9.79288 5.17997C10.1079 5.35497 10.4929 5.21497 10.6679 4.89997C10.8429 4.58497 10.7029 4.19997 10.3879 4.02497C8.28789 2.97497 6.50287 3.49997 5.45287 4.86497C5.24287 5.14497 5.27787 5.56497 5.55787 5.77497C5.83787 5.94997 6.25788 5.91497 6.46788 5.63497Z" fill="#E27421"/>
<path d="M17.0376 10.0099C17.0376 8.57489 18.1226 7.38489 19.4176 7.38489C20.7476 7.38489 21.7976 8.53989 21.7976 10.0099C21.7976 11.4449 20.7126 12.6349 19.4176 12.6349C18.1226 12.6349 17.0376 11.4449 17.0376 10.0099Z" fill="url(#paint3_radial_330_12237)"/>
<path d="M18.0862 8.99515C18.0862 8.54015 18.3662 8.15515 18.6812 8.15515C18.9962 8.15515 19.2762 8.54015 19.2762 8.99515C19.2762 9.45015 18.9962 9.83515 18.6812 9.83515C18.3662 9.83515 18.0862 9.45015 18.0862 8.99515Z" fill="#4E506A"/>
<path d="M11.1914 10.0099C11.1914 8.57489 10.1064 7.38489 8.81141 7.38489C7.48141 7.38489 6.4314 8.53989 6.4314 10.0099C6.4314 11.4449 7.51641 12.6349 8.81141 12.6349C10.1064 12.6349 11.1914 11.4449 11.1914 10.0099Z" fill="url(#paint4_radial_330_12237)"/>
<path d="M8.39216 8.99515C8.39216 8.54015 8.11215 8.15515 7.79715 8.15515C7.48215 8.15515 7.20215 8.54015 7.20215 8.99515C7.20215 9.45015 7.48215 9.83515 7.79715 9.83515C8.11215 9.83515 8.39216 9.45015 8.39216 8.99515Z" fill="#4E506A"/>
<defs>
<radialGradient id="paint0_radial_330_12237" cx="0" cy="0" r="1" gradientUnits="userSpaceOnUse" gradientTransform="translate(13.8999 11.5897) rotate(90.1003) scale(18.9338 19.5669)">
<stop stop-color="#FFED85"/>
<stop offset="0.1898" stop-color="#FFE180"/>
<stop offset="0.5295" stop-color="#FFC273"/>
<stop offset="0.9773" stop-color="#FF915E"/>
<stop offset="1" stop-color="#FF8E5D"/>
</radialGradient>
<radialGradient id="paint1_radial_330_12237" cx="0" cy="0" r="1" gradientUnits="userSpaceOnUse" gradientTransform="translate(7.74097 6.937) scale(23.3154)">
<stop stop-color="#FFEA84" stop-opacity="0"/>
<stop offset="1" stop-color="#F08423" stop-opacity="0.34"/>
</radialGradient>
<linearGradient id="paint2_linear_330_12237" x1="14.0963" y1="13.925" x2="14.0963" y2="24.3603" gradientUnits="userSpaceOnUse">
<stop stop-color="#3F1D04"/>
<stop offset="1" stop-color="#7E2307"/>
</linearGradient>
<radialGradient id="paint3_radial_330_12237" cx="0" cy="0" r="1" gradientUnits="userSpaceOnUse" gradientTransform="translate(19.4458 10.0099) scale(2.50278 2.50278)">
<stop stop-color="#2C445F"/>
<stop offset="0.9792" stop-color="#191A33"/>
</radialGradient>
<radialGradient id="paint4_radial_330_12237" cx="0" cy="0" r="1" gradientUnits="userSpaceOnUse" gradientTransform="translate(8.77468 10.0099) rotate(180) scale(2.50279 2.50278)">
<stop stop-color="#2C445F"/>
<stop offset="0.9792" stop-color="#191A33"/>
</radialGradient>
</defs>
</svg>
