<svg width="19" height="18" viewBox="0 0 19 18" fill="none" xmlns="http://www.w3.org/2000/svg">
<path d="M12.6149 0.172225L18.8108 6.10391C18.8706 6.16121 18.9182 6.22985 18.9507 6.30576C18.9832 6.38166 19 6.46327 19 6.54572C19 6.62817 18.9832 6.70977 18.9507 6.78568C18.9182 6.86158 18.8706 6.93022 18.8108 6.98752L12.6149 12.9192C12.5582 12.9745 12.4911 13.0181 12.4174 13.0476C12.3437 13.0771 12.2648 13.0918 12.1853 13.091C12.0209 13.091 11.8633 13.0264 11.7472 12.9113C11.631 12.7962 11.5657 12.6401 11.5657 12.4774V9.41747C6.03068 9.63837 3.70102 12.7065 3.60188 12.8374C3.52301 12.9402 3.41415 13.0165 3.29003 13.056C3.16591 13.0956 3.03253 13.0963 2.90794 13.0583C2.78367 13.0186 2.67522 12.9411 2.59808 12.8368C2.52093 12.7325 2.47903 12.6067 2.47836 12.4774C2.47836 5.91573 7.92249 3.90305 11.5657 3.69851V0.614033C11.566 0.493353 11.6021 0.375431 11.6697 0.275019C11.7373 0.174607 11.8333 0.0961631 11.9457 0.0495003C12.057 0.00197734 12.18 -0.0117288 12.2991 0.0101221C12.4183 0.031973 12.5282 0.0883953 12.6149 0.172225ZM12.8049 8.79566V11.0129L17.489 6.54572L12.8049 2.06218V4.29577C12.8027 4.45785 12.7368 4.6127 12.621 4.72732C12.5053 4.84194 12.3489 4.90727 12.1853 4.90939C11.3839 4.90939 4.87411 5.08939 3.84972 10.8656C6.22566 9.03284 9.17531 8.08321 12.1853 8.18204C12.3489 8.18416 12.5053 8.24949 12.621 8.36411C12.7368 8.47873 12.8027 8.63358 12.8049 8.79566ZM16.2936 13.2735C16.4091 13.1588 16.5653 13.0933 16.7289 13.091C16.8926 13.0931 17.0489 13.1585 17.1647 13.2731C17.2804 13.3877 17.3464 13.5426 17.3485 13.7046V14.1137C17.3485 15.1444 16.9351 16.1329 16.1992 16.8617C15.4633 17.5906 14.4652 18 13.4244 18H3.92407C2.88334 18 1.88524 17.5906 1.14933 16.8617C0.413428 16.1329 0 15.1444 0 14.1137V4.70485C0 3.67414 0.413428 2.68566 1.14933 1.95684C1.88524 1.22802 2.88334 0.818574 3.92407 0.818574H7.64161C7.80594 0.818574 7.96353 0.883223 8.07973 0.9983C8.19592 1.11338 8.2612 1.26945 8.2612 1.4322C8.2612 1.59494 8.19592 1.75102 8.07973 1.86609C7.96353 1.98117 7.80594 2.04582 7.64161 2.04582H3.92407C3.21266 2.04798 2.53102 2.32882 2.02797 2.82701C1.52493 3.32521 1.24136 4.00029 1.23918 4.70485V14.1137C1.24136 14.8183 1.52493 15.4934 2.02797 15.9916C2.53102 16.4898 3.21266 16.7706 3.92407 16.7728H13.4244C14.1359 16.7706 14.8175 16.4898 15.3205 15.9916C15.8236 15.4934 16.1072 14.8183 16.1093 14.1137V13.7046C16.1117 13.5426 16.1778 13.3879 16.2936 13.2735Z" fill="#E4E6EB"/>
</svg>
