<svg width="23" height="23" viewBox="0 0 23 23" fill="none" xmlns="http://www.w3.org/2000/svg">
<path d="M12.7139 20.1054L13.2302 20.411L12.7139 20.1054ZM13.2108 19.2658L12.6945 18.9602L13.2108 19.2658ZM10.2248 19.2658L9.70842 19.5715L10.2248 19.2658ZM10.7217 20.1054L11.238 19.7998L10.7217 20.1054ZM2.90003 15.0873L3.45436 14.8577H3.45436L2.90003 15.0873ZM7.85826 17.9088L7.84792 18.5087L7.85826 17.9088ZM5.38052 17.5678L5.1509 18.1221H5.15091L5.38052 17.5678ZM20.5356 15.0873L21.0899 15.3169V15.3169L20.5356 15.0873ZM15.5773 17.9088L15.567 17.3089L15.5773 17.9088ZM18.0551 17.5678L18.2847 18.1221H18.2847L18.0551 17.5678ZM18.6959 3.00874L18.3824 3.52032V3.52032L18.6959 3.00874ZM20.2091 4.52188L20.7207 4.20838V4.20838L20.2091 4.52188ZM4.7397 3.00874L4.4262 2.49715V2.49715L4.7397 3.00874ZM3.22655 4.52188L2.71496 4.20838H2.71496L3.22655 4.52188ZM9.33704 18.109L9.6387 17.5904L9.6387 17.5904L9.33704 18.109ZM13.2302 20.411L13.7272 19.5715L12.6945 18.9602L12.1976 19.7998L13.2302 20.411ZM9.70842 19.5715L10.2053 20.411L11.238 19.7998L10.7411 18.9602L9.70842 19.5715ZM12.1976 19.7998C11.987 20.1555 11.4486 20.1555 11.238 19.7998L10.2053 20.411C10.8806 21.5518 12.555 21.5518 13.2302 20.411L12.1976 19.7998ZM10.3428 2.93334H13.0928V1.73334H10.3428V2.93334ZM20.2845 10.125V11.0417H21.4845V10.125H20.2845ZM3.15115 11.0417V10.125H1.95115V11.0417H3.15115ZM1.95115 11.0417C1.95115 12.1012 1.95082 12.926 1.99615 13.5903C2.04184 14.26 2.13593 14.8105 2.34571 15.3169L3.45436 14.8577C3.31525 14.5218 3.23489 14.1173 3.19337 13.5086C3.15147 12.8946 3.15115 12.1177 3.15115 11.0417H1.95115ZM7.8686 17.3089C6.71779 17.2891 6.09967 17.2162 5.61012 17.0135L5.15091 18.1221C5.87192 18.4208 6.69724 18.4889 7.84792 18.5087L7.8686 17.3089ZM2.34571 15.3169C2.87178 16.587 3.88084 17.596 5.1509 18.1221L5.61013 17.0135C4.6341 16.6092 3.85864 15.8337 3.45436 14.8577L2.34571 15.3169ZM20.2845 11.0417C20.2845 12.1177 20.2842 12.8946 20.2423 13.5086C20.2007 14.1173 20.1204 14.5218 19.9813 14.8577L21.0899 15.3169C21.2997 14.8105 21.3938 14.26 21.4395 13.5903C21.4848 12.926 21.4845 12.1012 21.4845 11.0417H20.2845ZM15.5877 18.5087C16.7384 18.4889 17.5637 18.4208 18.2847 18.1221L17.8255 17.0135C17.336 17.2162 16.7178 17.2891 15.567 17.3089L15.5877 18.5087ZM19.9813 14.8577C19.577 15.8337 18.8015 16.6092 17.8255 17.0135L18.2847 18.1221C19.5548 17.596 20.5638 16.587 21.0899 15.3169L19.9813 14.8577ZM13.0928 2.93334C14.6048 2.93334 15.6966 2.93397 16.5495 3.01507C17.3935 3.09532 17.9415 3.2501 18.3824 3.52032L19.0094 2.49715C18.3482 2.09197 17.5949 1.90906 16.6631 1.82045C15.7402 1.7327 14.5815 1.73334 13.0928 1.73334V2.93334ZM21.4845 10.125C21.4845 8.6363 21.4851 7.47764 21.3974 6.55472C21.3088 5.62287 21.1258 4.86958 20.7207 4.20838L19.6975 4.83538C19.9677 5.27634 20.1225 5.82429 20.2027 6.6683C20.2838 7.52124 20.2845 8.61306 20.2845 10.125H21.4845ZM18.3824 3.52032C18.9184 3.84877 19.369 4.2994 19.6975 4.83538L20.7207 4.20838C20.2933 3.51094 19.7069 2.92455 19.0094 2.49715L18.3824 3.52032ZM10.3428 1.73334C8.85411 1.73334 7.69545 1.7327 6.77253 1.82045C5.84068 1.90906 5.08739 2.09197 4.4262 2.49715L5.05319 3.52032C5.49415 3.2501 6.0421 3.09532 6.88611 3.01507C7.73905 2.93397 8.83087 2.93334 10.3428 2.93334V1.73334ZM3.15115 10.125C3.15115 8.61306 3.15178 7.52124 3.23288 6.6683C3.31313 5.82429 3.46791 5.27634 3.73813 4.83538L2.71496 4.20838C2.30978 4.86958 2.12687 5.62287 2.03827 6.55472C1.95051 7.47764 1.95115 8.6363 1.95115 10.125H3.15115ZM4.4262 2.49715C3.72875 2.92455 3.14236 3.51094 2.71496 4.20838L3.73813 4.83538C4.06658 4.2994 4.51722 3.84877 5.05319 3.52032L4.4262 2.49715ZM10.7411 18.9602C10.5541 18.6444 10.3932 18.3712 10.2373 18.1574C10.0741 17.9334 9.89063 17.7369 9.6387 17.5904L9.03538 18.6277C9.09301 18.6612 9.16066 18.7175 9.26756 18.8642C9.38184 19.021 9.50994 19.2361 9.70842 19.5715L10.7411 18.9602ZM7.84792 18.5087C8.2488 18.5157 8.5085 18.5207 8.70784 18.5428C8.89605 18.5636 8.97973 18.5953 9.03538 18.6277L9.6387 17.5904C9.38479 17.4427 9.11883 17.381 8.83991 17.3501C8.57211 17.3204 8.2472 17.3154 7.8686 17.3089L7.84792 18.5087ZM13.7272 19.5715C13.9257 19.2361 14.0538 19.0209 14.168 18.8642C14.2749 18.7175 14.3426 18.6612 14.4002 18.6277L13.7969 17.5904C13.545 17.7369 13.3615 17.9334 13.1983 18.1574C13.0424 18.3712 12.8815 18.6444 12.6945 18.9602L13.7272 19.5715ZM15.567 17.3089C15.1884 17.3154 14.8635 17.3204 14.5957 17.3501C14.3168 17.381 14.0508 17.4427 13.7969 17.5904L14.4002 18.6277C14.4559 18.5953 14.5395 18.5636 14.7278 18.5428C14.9271 18.5207 15.1868 18.5157 15.5877 18.5087L15.567 17.3089Z" fill="#999EB2"/>
<path d="M8.05115 8.75H15.3845" stroke="#999EB2" stroke-width="1.2" stroke-linecap="round"/>
<path d="M8.05115 11.9583H13.0928" stroke="#999EB2" stroke-width="1.2" stroke-linecap="round"/>
</svg>
