<svg width="19" height="18" viewBox="0 0 19 18" fill="none" xmlns="http://www.w3.org/2000/svg">
<path d="M9.5 16.875C7.94247 16.875 6.41992 16.4131 5.12488 15.5478C3.82985 14.6825 2.82049 13.4526 2.22445 12.0136C1.62841 10.5747 1.47246 8.99127 1.77631 7.46367C2.08017 5.93607 2.83019 4.53288 3.93153 3.43154C5.03287 2.3302 6.43606 1.58018 7.96366 1.27632C9.49126 0.972461 11.0747 1.12841 12.5136 1.72445C13.9526 2.32049 15.1825 3.32985 16.0478 4.62489C16.9131 5.91992 17.375 7.44248 17.375 9C17.375 10.1762 17.1179 11.291 16.6554 12.2935C16.5595 12.5012 16.5251 12.7334 16.5711 12.9576L17.0702 15.3896C17.2145 16.0928 16.5928 16.7145 15.8896 16.5702L13.4574 16.0711C13.2333 16.0251 13.0013 16.0594 12.7936 16.1552C11.7915 16.6172 10.6754 16.875 9.5 16.875Z" stroke="#4A4A4A" stroke-width="1.5" stroke-linecap="round" stroke-linejoin="round"/>
</svg>
