<svg width="23" height="23" viewBox="0 0 23 23" fill="none" xmlns="http://www.w3.org/2000/svg">
<g clip-path="url(#clip0_455_320)">
<path d="M10.7139 3.06502V3.09612L10.7172 3.12705L10.9616 5.47888C10.9545 5.81702 10.8197 6.21826 10.5593 6.71396C10.339 7.13349 10.0583 7.56834 9.74899 8.04756C9.68328 8.14937 9.61628 8.25318 9.54829 8.35927C8.80426 9.52019 7.94498 10.9385 7.94498 12.5224V17.7623C7.94498 19.2264 9.41037 20.6202 11.7685 20.6202H17.1825C17.7056 20.6202 18.3833 20.5665 18.9725 20.309C19.5932 20.0378 20.1396 19.5233 20.2566 18.6527C20.2877 18.4273 20.2717 18.2213 20.2257 18.0296C20.6709 17.755 21.0283 17.343 21.2507 16.8846C21.4977 16.3754 21.5987 15.7623 21.4334 15.168C22.4435 14.2974 22.6491 12.7099 21.7402 11.678C22.1393 10.8733 22.249 10.0504 21.932 9.32634C21.5535 8.4619 20.6659 7.96191 19.5429 7.79654C18.6044 7.65833 17.5553 7.69485 16.631 7.805C16.1898 7.85758 15.7668 7.92819 15.3874 8.00839C15.4192 7.90834 15.4524 7.80525 15.4863 7.69998C15.5084 7.63159 15.5307 7.56228 15.5531 7.49229C15.6512 7.18623 15.7509 6.8688 15.8262 6.58751C15.8965 6.32455 15.9641 6.02857 15.9641 5.79148C15.9641 5.13645 15.9232 4.34966 15.6995 3.62767C15.474 2.89943 15.0457 2.1882 14.2457 1.77106C13.7818 1.50762 13.3499 1.4 12.8017 1.4C11.9746 1.4 11.3365 1.73394 11.038 2.02028C10.8907 2.14638 10.827 2.30411 10.7998 2.38194C10.7628 2.48788 10.7445 2.59412 10.7342 2.67552C10.7139 2.83594 10.7139 2.99472 10.7139 3.05998L10.7139 3.06502ZM2.65907 9.76159L3.08972 10.1794L2.65907 9.76159C2.29368 10.1382 2.11777 10.633 2.11777 11.1166V19.6794C2.11777 20.163 2.29368 20.6577 2.65907 21.0344C3.02554 21.4121 3.5141 21.6 3.99893 21.6H5.7347C6.21952 21.6 6.70809 21.4121 7.07456 21.0344C7.43996 20.6577 7.61586 20.163 7.61586 19.6794V11.1166C7.61586 10.633 7.43995 10.1382 7.07456 9.76159C6.70809 9.38383 6.21952 9.19597 5.7347 9.19597H3.99893C3.5141 9.19597 3.02554 9.38383 2.65907 9.76159Z" stroke="#999EB2" stroke-width="1.2"/>
</g>
<defs>
<clipPath id="clip0_455_320">
<rect x="0.717773" y="0.5" width="22" height="22" rx="3" fill="white"/>
</clipPath>
</defs>
</svg>
