<svg width="25" height="25" viewBox="0 0 25 25" fill="none" xmlns="http://www.w3.org/2000/svg">
<path d="M14.8601 4.11681L15.7869 3.18993C17.3226 1.65422 19.8125 1.65422 21.3482 3.18993C22.8839 4.72563 22.8839 7.2155 21.3482 8.75121L20.4213 9.67808M14.8601 4.11681C14.8601 4.11681 14.9759 6.08643 16.7138 7.82433C18.4517 9.56222 20.4213 9.67808 20.4213 9.67808M14.8601 4.11681L6.33882 12.6381C5.76166 13.2153 5.47308 13.5037 5.2249 13.8219C4.93213 14.1973 4.68114 14.6034 4.47634 15.0331C4.30273 15.3974 4.17368 15.7846 3.91556 16.5589L2.82181 19.8402M20.4213 9.67808L11.9001 18.1993C11.3229 18.7764 11.0344 19.065 10.7162 19.3132C10.3408 19.606 9.93469 19.857 9.50498 20.0618C9.1407 20.2354 8.75352 20.3644 7.97918 20.6225L4.69792 21.7163M2.82181 19.8402L2.55445 20.6423C2.42743 21.0233 2.5266 21.4434 2.81063 21.7275C3.09466 22.0115 3.51478 22.1107 3.89584 21.9837L4.69792 21.7163M2.82181 19.8402L4.69792 21.7163" stroke="white" stroke-width="1.5"/>
</svg>
