<svg width="25" height="25" viewBox="0 0 25 25" fill="none" xmlns="http://www.w3.org/2000/svg">
<path d="M12.5 15.0381C14.1569 15.0381 15.5 13.695 15.5 12.0381C15.5 10.3813 14.1569 9.03815 12.5 9.03815C10.8431 9.03815 9.5 10.3813 9.5 12.0381C9.5 13.695 10.8431 15.0381 12.5 15.0381Z" stroke="white" stroke-width="1.5"/>
<path d="M14.2654 2.19039C13.8978 2.03815 13.4319 2.03815 12.5 2.03815C11.5681 2.03815 11.1022 2.03815 10.7346 2.19039C10.2446 2.39338 9.85522 2.78273 9.65223 3.27278C9.55957 3.49649 9.5233 3.75665 9.50911 4.13614C9.48826 4.69383 9.20226 5.21004 8.71894 5.48908C8.23564 5.76811 7.64559 5.75769 7.15219 5.49691C6.81645 5.31945 6.57301 5.22077 6.33294 5.18917C5.80704 5.11993 5.27518 5.26244 4.85436 5.58535C4.53874 5.82753 4.30577 6.23105 3.83983 7.03808C3.37389 7.84512 3.14092 8.24863 3.08899 8.64306C3.01976 9.16895 3.16227 9.70081 3.48518 10.1216C3.63256 10.3137 3.8397 10.4751 4.16119 10.6771C4.6338 10.9741 4.93789 11.48 4.93786 12.0381C4.93783 12.5962 4.63375 13.102 4.16118 13.3989C3.83965 13.601 3.63248 13.7625 3.48508 13.9546C3.16217 14.3754 3.01966 14.9072 3.0889 15.4331C3.14082 15.8275 3.37379 16.2311 3.83973 17.0381C4.30568 17.8451 4.53865 18.2487 4.85426 18.4908C5.27508 18.8137 5.80694 18.9562 6.33284 18.887C6.57289 18.8554 6.81632 18.7567 7.15204 18.5793C7.64547 18.3185 8.23556 18.3081 8.7189 18.5871C9.20224 18.8662 9.48826 19.3824 9.50911 19.9402C9.52331 20.3196 9.55957 20.5798 9.65223 20.8035C9.85522 21.2935 10.2446 21.6829 10.7346 21.8859C11.1022 22.0381 11.5681 22.0381 12.5 22.0381C13.4319 22.0381 13.8978 22.0381 14.2654 21.8859C14.7554 21.6829 15.1448 21.2935 15.3477 20.8035C15.4404 20.5798 15.4767 20.3196 15.4909 19.9401C15.5117 19.3824 15.7977 18.8662 16.281 18.5871C16.7643 18.308 17.3544 18.3185 17.8479 18.5793C18.1836 18.7567 18.427 18.8553 18.667 18.8869C19.1929 18.9562 19.7248 18.8137 20.1456 18.4908C20.4612 18.2486 20.6942 17.8451 21.1601 17.038C21.6261 16.231 21.8591 15.8275 21.911 15.4331C21.9802 14.9072 21.8377 14.3753 21.5148 13.9545C21.3674 13.7624 21.1602 13.6009 20.8387 13.3989C20.3662 13.102 20.0621 12.5961 20.0621 12.038C20.0621 11.4799 20.3662 10.9742 20.8387 10.6773C21.1603 10.4752 21.3675 10.3138 21.5149 10.1216C21.8378 9.70088 21.9803 9.16902 21.9111 8.64312C21.8592 8.2487 21.6262 7.84518 21.1602 7.03815C20.6943 6.23112 20.4613 5.8276 20.1457 5.58542C19.7249 5.26251 19.193 5.12 18.6671 5.18924C18.4271 5.22084 18.1837 5.31951 17.8479 5.49695C17.3545 5.75774 16.7644 5.76817 16.2811 5.48911C15.7977 5.21006 15.5117 4.69381 15.4909 4.13609C15.4767 3.75663 15.4404 3.49648 15.3477 3.27278C15.1448 2.78273 14.7554 2.39338 14.2654 2.19039Z" stroke="white" stroke-width="1.5"/>
</svg>
