<svg width="23" height="5" viewBox="0 0 23 5" fill="none" xmlns="http://www.w3.org/2000/svg">
<path d="M2.5306 3.72445C3.15614 3.72445 3.66325 3.21735 3.66325 2.5918C3.66325 1.96626 3.15614 1.45915 2.5306 1.45915C1.90505 1.45915 1.39795 1.96626 1.39795 2.5918C1.39795 3.21735 1.90505 3.72445 2.5306 3.72445Z" stroke="white" stroke-width="2.2653"/>
<path d="M11.5916 3.72447C12.2172 3.72447 12.7243 3.21736 12.7243 2.59182C12.7243 1.96627 12.2172 1.45917 11.5916 1.45917C10.9661 1.45917 10.459 1.96627 10.459 2.59182C10.459 3.21736 10.9661 3.72447 11.5916 3.72447Z" stroke="white" stroke-width="2.2653"/>
<path d="M20.6529 3.72447C21.2785 3.72447 21.7856 3.21736 21.7856 2.59182C21.7856 1.96627 21.2785 1.45917 20.6529 1.45917C20.0274 1.45917 19.5203 1.96627 19.5203 2.59182C19.5203 3.21736 20.0274 3.72447 20.6529 3.72447Z" stroke="white" stroke-width="2.2653"/>
</svg>
