<svg width="27" height="27" viewBox="0 0 27 27" fill="none" xmlns="http://www.w3.org/2000/svg">
<path fill-rule="evenodd" clip-rule="evenodd" d="M26.0992 12.2223V18.8802C26.0992 23.0089 26.0992 25.0733 25.0741 25.9754C24.5853 26.4056 23.9682 26.6758 23.3109 26.7477C21.9326 26.8983 20.323 25.5389 17.104 22.8201C15.6811 21.6183 14.9696 21.0174 14.1465 20.859C13.7411 20.7811 13.3238 20.7811 12.9185 20.859C12.0954 21.0174 11.3839 21.6183 9.96098 22.8201C6.74193 25.5389 5.1324 26.8983 3.75411 26.7477C3.09677 26.6758 2.47971 26.4056 1.99085 25.9754C0.96582 25.0733 0.96582 23.0089 0.96582 18.8802V12.2223C0.96582 6.50416 0.96582 3.64509 2.80617 1.86869C4.64651 0.0922852 7.6085 0.0922852 13.5325 0.0922852C19.4565 0.0922852 22.4185 0.0922852 24.2588 1.86869C26.0992 3.64509 26.0992 6.50416 26.0992 12.2223Z" fill="white"/>
</svg>
