<svg width="27" height="20" viewBox="0 0 27 20" fill="none" xmlns="http://www.w3.org/2000/svg">
<path d="M13.8529 15.3416C13.8529 14.7525 13.3753 14.275 12.7862 14.275H11.1862C8.999 14.2741 6.85317 14.8712 4.9807 16.0015C3.4176 16.9451 2.09463 18.2304 1.10787 19.7554C0.937466 20.0187 0.51937 19.922 0.519531 19.6083C0.519531 12.6033 5.92104 6.8603 12.7863 6.317C13.3736 6.27053 13.8529 5.79741 13.8529 5.20831V1.82764C13.8529 0.933234 14.8875 0.435983 15.5859 0.994715L26.145 9.44205C26.6788 9.86906 26.6788 10.6809 26.145 11.1079L15.5859 19.5552C14.8875 20.114 13.8529 19.6167 13.8529 18.7223V15.3416Z" fill="white"/>
</svg>
