<svg width="19" height="18" viewBox="0 0 19 18" fill="none" xmlns="http://www.w3.org/2000/svg">
<path d="M7.40057 16.5H11.889C15.6294 16.5 17.1255 15 17.1255 11.25V6.75C17.1255 3 15.6294 1.5 11.889 1.5H7.40057C3.66021 1.5 2.16406 3 2.16406 6.75V11.25C2.16406 15 3.66021 16.5 7.40057 16.5Z" stroke="white" stroke-width="1.5" stroke-linecap="round" stroke-linejoin="round"/>
<path d="M7.40044 7.5C8.22674 7.5 8.89658 6.82843 8.89658 6C8.89658 5.17157 8.22674 4.5 7.40044 4.5C6.57414 4.5 5.9043 5.17157 5.9043 6C5.9043 6.82843 6.57414 7.5 7.40044 7.5Z" stroke="white" stroke-width="1.5" stroke-linecap="round" stroke-linejoin="round"/>
<path d="M2.66602 14.2125L6.35401 11.73C6.94499 11.3325 7.79779 11.3775 8.32892 11.835L8.57578 12.0525C9.15928 12.555 10.1019 12.555 10.6853 12.0525L13.7973 9.37504C14.3808 8.87254 15.3234 8.87254 15.9069 9.37504L17.1262 10.425" stroke="white" stroke-width="1.5" stroke-linecap="round" stroke-linejoin="round"/>
</svg>
