<svg width="24" height="24" viewBox="0 0 24 24" fill="none" xmlns="http://www.w3.org/2000/svg">
<path d="M18.7304 14.67L14.5804 18.82C14.4204 18.98 14.2704 19.29 14.2304 19.51L14.0004 21.1C13.9204 21.67 14.3204 22.08 14.8904 21.99L16.4804 21.76C16.7004 21.73 17.0104 21.57 17.1704 21.41L21.3204 17.26C22.0304 16.55 22.3704 15.71 21.3204 14.66C20.2804 13.62 19.4504 13.95 18.7304 14.67Z" fill="#E4E6EB"/>
<path d="M18.1406 15.26C18.4906 16.52 19.4806 17.5 20.7406 17.86L18.1406 15.26Z" fill="#E4E6EB"/>
<path d="M2.02977 14.63C2.02977 14.66 2.00977 14.7 2.00977 14.73C2.92977 16.57 4.42977 18.08 6.26977 18.99C6.29977 18.99 6.33977 18.97 6.36977 18.97C6.02977 17.81 5.76977 16.62 5.57977 15.43C4.37977 15.23 3.18977 14.97 2.02977 14.63Z" fill="#E4E6EB"/>
<path d="M19.0701 6.43C18.1301 4.46 16.5401 2.87 14.5801 1.94C14.9401 3.13 15.2401 4.35 15.4401 5.57C16.6601 5.77 17.8801 6.06 19.0701 6.43Z" fill="#E4E6EB"/>
<path d="M1.92969 6.43C3.12969 6.07 4.34969 5.77 5.56969 5.57C5.76969 4.38 6.01969 3.2 6.35969 2.04C6.32969 2.04 6.28969 2.02 6.25969 2.02C4.37969 2.95 2.84969 4.52 1.92969 6.43Z" fill="#E4E6EB"/>
<path d="M13.8197 5.36C13.5797 4.06 13.2797 2.76 12.8497 1.5C12.8297 1.43 12.8297 1.37 12.8197 1.29C12.0797 1.11 11.2997 1 10.4997 1C9.68969 1 8.91969 1.11 8.16969 1.3C8.15969 1.37 8.16969 1.43 8.14969 1.51C7.72969 2.77 7.41969 4.06 7.17969 5.36C9.38969 5.12 11.6097 5.12 13.8197 5.36Z" fill="#E4E6EB"/>
<path d="M5.36 7.17999C4.05 7.41999 2.77 7.72999 1.5 8.14999C1.43 8.16999 1.37 8.16999 1.3 8.17999C1.11 8.91999 1 9.69999 1 10.5C1 11.31 1.11 12.08 1.3 12.83C1.37 12.84 1.43 12.83 1.51 12.85C2.77 13.27 4.06 13.58 5.37 13.82C5.12 11.61 5.12 9.38999 5.36 7.17999Z" fill="#E4E6EB"/>
<path d="M19.7009 8.17999C19.6309 8.17999 19.5709 8.16999 19.4909 8.14999C18.2309 7.72999 16.9309 7.41999 15.6309 7.17999C15.8809 9.38999 15.8809 11.61 15.6309 13.81C16.9309 13.57 18.2309 13.27 19.4909 12.84C19.5609 12.82 19.6209 12.83 19.7009 12.82C19.8809 12.07 20.0009 11.3 20.0009 10.49C20.0009 9.69999 19.8909 8.92999 19.7009 8.17999Z" fill="#E4E6EB"/>
<path d="M7.17969 15.64C7.41969 16.95 7.71969 18.24 8.14969 19.5C8.16969 19.57 8.15969 19.63 8.16969 19.71C8.91969 19.89 9.68969 20 10.4997 20C11.2997 20 12.0797 19.89 12.8197 19.7C12.8297 19.63 12.8297 19.57 12.8497 19.49C13.2697 18.23 13.5797 16.94 13.8197 15.63C12.7197 15.75 11.6097 15.84 10.4997 15.84C9.38969 15.84 8.27969 15.76 7.17969 15.64Z" fill="#E4E6EB"/>
<path d="M6.94961 6.95001C6.64961 9.31001 6.64961 11.69 6.94961 14.06C9.30961 14.36 11.6896 14.36 14.0596 14.06C14.3596 11.7 14.3596 9.32001 14.0596 6.95001C11.6896 6.65001 9.30961 6.65001 6.94961 6.95001Z" fill="#E4E6EB"/>
</svg>
