<svg width="24" height="25" viewBox="0 0 24 25" fill="none" xmlns="http://www.w3.org/2000/svg">
<path d="M2 6.53815C2 4.41683 2 3.35617 2.65901 2.69716C3.31802 2.03815 4.37868 2.03815 6.5 2.03815C8.62132 2.03815 9.68198 2.03815 10.341 2.69716C11 3.35617 11 4.41683 11 6.53815C11 8.65947 11 9.72013 10.341 10.3791C9.68198 11.0381 8.62132 11.0381 6.5 11.0381C4.37868 11.0381 3.31802 11.0381 2.65901 10.3791C2 9.72013 2 8.65947 2 6.53815Z" fill="#1F2232"/>
<path d="M13 17.5381C13 15.4168 13 14.3561 13.659 13.6971C14.318 13.0381 15.3787 13.0381 17.5 13.0381C19.6213 13.0381 20.682 13.0381 21.341 13.6971C22 14.3561 22 15.4168 22 17.5381C22 19.6594 22 20.7201 21.341 21.3791C20.682 22.0381 19.6213 22.0381 17.5 22.0381C15.3787 22.0381 14.318 22.0381 13.659 21.3791C13 20.7201 13 19.6594 13 17.5381Z" fill="#1F2232"/>
<path d="M2 17.5381C2 15.4168 2 14.3561 2.65901 13.6971C3.31802 13.0381 4.37868 13.0381 6.5 13.0381C8.62132 13.0381 9.68198 13.0381 10.341 13.6971C11 14.3561 11 15.4168 11 17.5381C11 19.6594 11 20.7201 10.341 21.3791C9.68198 22.0381 8.62132 22.0381 6.5 22.0381C4.37868 22.0381 3.31802 22.0381 2.65901 21.3791C2 20.7201 2 19.6594 2 17.5381Z" fill="#1F2232"/>
<path d="M13 6.53815C13 4.41683 13 3.35617 13.659 2.69716C14.318 2.03815 15.3787 2.03815 17.5 2.03815C19.6213 2.03815 20.682 2.03815 21.341 2.69716C22 3.35617 22 4.41683 22 6.53815C22 8.65947 22 9.72013 21.341 10.3791C20.682 11.0381 19.6213 11.0381 17.5 11.0381C15.3787 11.0381 14.318 11.0381 13.659 10.3791C13 9.72013 13 8.65947 13 6.53815Z" fill="#1F2232"/>
</svg>
