<svg width="20" height="20" viewBox="0 0 20 20" fill="none" xmlns="http://www.w3.org/2000/svg">
<path d="M16.9401 3.42043L11.7701 0.43043C10.7801 -0.13957 9.23008 -0.13957 8.24008 0.43043L3.02008 3.44043C0.950078 4.84043 0.830078 5.05043 0.830078 7.28043V12.7104C0.830078 14.9404 0.950078 15.1604 3.06008 16.5804L8.23008 19.5704C8.73008 19.8604 9.37008 20.0004 10.0001 20.0004C10.6301 20.0004 11.2701 19.8604 11.7601 19.5704L16.9801 16.5604C19.0501 15.1604 19.1701 14.9504 19.1701 12.7204V7.28043C19.1701 5.05043 19.0501 4.84043 16.9401 3.42043ZM10.0001 13.2504C8.21008 13.2504 6.75008 11.7904 6.75008 10.0004C6.75008 8.21043 8.21008 6.75043 10.0001 6.75043C11.7901 6.75043 13.2501 8.21043 13.2501 10.0004C13.2501 11.7904 11.7901 13.2504 10.0001 13.2504Z" fill="#292D32"/>
</svg>
