<svg width="24" height="25" viewBox="0 0 24 25" fill="none" xmlns="http://www.w3.org/2000/svg">
<path d="M19.5617 7.03815C19.7904 5.73338 18.7863 4.53815 17.4617 4.53815H6.53788C5.21323 4.53815 4.20922 5.73338 4.43784 7.03815" stroke="#616977" stroke-width="1.5"/>
<path d="M17.4999 4.53815C17.5283 4.27907 17.5425 4.1495 17.5427 4.0425C17.545 3.01887 16.7739 2.15879 15.7561 2.04957C15.6497 2.03815 15.5194 2.03815 15.2588 2.03815H8.74099C8.48035 2.03815 8.35002 2.03815 8.24362 2.04957C7.22584 2.15879 6.45481 3.01887 6.45704 4.04249C6.45727 4.1495 6.47146 4.27905 6.49983 4.53815" stroke="#616977" stroke-width="1.5"/>
<path d="M14.5812 13.654C15.1396 14.0002 15.1396 14.8963 14.5812 15.2425L11.2096 17.3326C10.6669 17.669 10 17.2312 10 16.5384V12.3581C10 11.6654 10.6669 11.2275 11.2096 11.5639L14.5812 13.654Z" stroke="#616977" stroke-width="1.5"/>
<path d="M2.38351 13.8311C1.93748 10.6675 1.71447 9.0858 2.66232 8.06198C3.61017 7.03815 5.29758 7.03815 8.67239 7.03815H15.3276C18.7024 7.03815 20.3898 7.03815 21.3377 8.06198C22.2855 9.0858 22.0625 10.6675 21.6165 13.8311L21.1935 16.8311C20.8437 19.312 20.6689 20.5524 19.7717 21.2953C18.8745 22.0381 17.5512 22.0381 14.9046 22.0381H9.09536C6.44881 22.0381 5.12553 22.0381 4.22834 21.2953C3.33115 20.5524 3.15626 19.312 2.80648 16.8311L2.38351 13.8311Z" stroke="#616977" stroke-width="1.5"/>
</svg>
